<?xml version="1.0" standalone="no"?>
<!DOCTYPE svg PUBLIC "-//W3C//DTD SVG 20010904//EN"
 "http://www.w3.org/TR/2001/REC-SVG-20010904/DTD/svg10.dtd">
<svg version="1.0" xmlns="http://www.w3.org/2000/svg"
 width="1024.000000pt" height="1024.000000pt" viewBox="0 0 1024.000000 1024.000000"
 preserveAspectRatio="xMidYMid meet">
<metadata>
Created by potrace 1.11, written by Peter Selinger 2001-2013
</metadata>
<g transform="translate(0.000000,1024.000000) scale(0.100000,-0.100000)"
fill="#000000" stroke="none">
<path d="M2347 6660 c-71 -11 -127 -36 -205 -89 l-60 -41 -38 16 c-21 9 -67
17 -104 18 -126 3 -220 -45 -199 -103 27 -69 134 -158 214 -175 62 -14 83 -28
101 -68 10 -22 37 -56 60 -77 44 -39 141 -91 169 -91 31 0 55 -20 55 -46 0
-25 -41 -108 -107 -219 -19 -33 -48 -96 -63 -140 -15 -44 -44 -125 -64 -179
-22 -60 -39 -127 -43 -165 -3 -37 -11 -88 -19 -115 -30 -108 -10 -194 64 -269
64 -65 120 -99 227 -137 136 -49 226 -51 434 -10 l164 32 76 -17 c42 -9 103
-23 136 -31 33 -7 128 -16 210 -19 272 -10 351 -16 406 -30 75 -20 209 -19
253 1 32 16 33 19 29 58 -6 48 -18 65 -34 49 -12 -12 -139 -6 -149 7 -3 3 -25
15 -50 25 -38 16 -88 19 -335 26 -217 6 -306 12 -355 24 -78 20 -195 20 -310
0 -47 -8 -125 -21 -175 -30 -166 -28 -233 -19 -341 46 -82 50 -97 79 -95 194
1 68 -3 101 -13 117 -13 21 -12 31 15 108 17 47 37 108 46 135 21 68 79 208
105 253 12 20 41 75 65 121 48 95 53 133 23 198 -20 46 -25 48 -124 58 -32 3
-64 9 -71 13 -30 17 -154 136 -150 143 3 4 -7 17 -21 28 -26 21 -27 22 -12 59
9 20 21 56 27 79 9 32 26 55 74 97 92 80 142 100 252 101 124 0 165 -24 243
-143 l56 -86 0 -100 c1 -104 -17 -176 -100 -406 -13 -36 -33 -100 -46 -143
-20 -71 -26 -81 -75 -120 -54 -42 -143 -146 -143 -166 0 -6 11 -11 25 -11 17
0 44 20 91 69 81 85 197 147 404 215 168 56 218 62 340 42 52 -9 145 -16 205
-16 152 0 467 -63 570 -114 129 -64 238 -163 301 -273 38 -67 49 -96 69 -187
13 -57 12 -60 -10 -80 -80 -73 -105 -99 -105 -110 0 -7 -42 -57 -94 -112 -103
-108 -103 -110 -12 -113 80 -2 214 47 311 115 11 8 31 14 46 14 14 0 38 9 53
21 24 19 26 25 20 72 -30 244 -169 488 -344 604 -104 69 -224 123 -320 143
-273 55 -393 73 -555 81 -93 4 -192 13 -220 19 -73 16 -136 4 -299 -55 -80
-29 -146 -50 -146 -46 0 3 21 65 46 136 97 279 117 420 69 486 -13 19 -30 45
-36 59 -60 138 -110 194 -205 230 -69 26 -127 32 -207 20z m-310 -219 c7 -4
-35 -105 -45 -109 -22 -8 -109 38 -121 65 -15 32 -14 32 12 43 16 7 138 7 154
1z"/>
<path d="M2244 6426 c-7 -19 13 -56 31 -56 8 0 20 10 26 22 10 18 8 24 -7 35
-23 17 -43 17 -50 -1z"/>
<path d="M6094 6289 c-63 -11 -190 -56 -232 -83 -60 -37 -148 -123 -162 -156
-9 -22 -17 -29 -31 -25 -9 3 -55 1 -101 -4 -71 -9 -86 -15 -106 -37 -19 -22
-22 -34 -17 -63 8 -47 27 -62 119 -95 62 -22 87 -38 137 -86 82 -80 204 -142
283 -144 31 0 56 -2 56 -4 0 -1 -29 -60 -64 -130 -75 -150 -122 -303 -111
-360 4 -20 8 -64 10 -97 2 -66 12 -90 61 -151 34 -40 105 -86 167 -106 18 -6
219 -14 452 -19 231 -4 443 -13 470 -19 167 -36 495 -42 643 -11 67 14 96 15
141 7 31 -5 99 -10 152 -10 114 -1 120 2 167 97 17 34 48 80 67 101 50 57 60
101 35 154 -11 23 -25 66 -30 95 -36 192 -126 320 -270 389 -120 56 -366 139
-475 159 -55 10 -131 25 -170 34 -176 40 -348 44 -435 9 -39 -15 -115 -59
-130 -74 -49 -50 -275 -200 -301 -200 -16 0 -18 5 -13 25 9 37 9 161 0 242 -6
48 -5 77 2 85 18 23 35 137 29 197 -12 111 -74 227 -140 262 -35 19 -141 29
-203 18z m116 -69 c45 -24 60 -72 71 -227 6 -81 9 -168 6 -193 -3 -29 0 -55
10 -74 13 -25 13 -40 3 -107 -8 -48 -10 -108 -5 -154 6 -68 9 -77 33 -89 15
-8 36 -23 46 -35 11 -12 25 -21 31 -21 7 0 37 24 66 53 30 29 81 67 114 86 57
32 149 101 224 170 78 71 208 89 371 51 47 -11 148 -33 225 -50 132 -29 335
-99 446 -155 44 -23 106 -82 128 -124 6 -11 25 -59 41 -105 17 -47 46 -112 65
-145 19 -33 35 -64 35 -71 0 -26 -47 -99 -103 -161 l-61 -67 -96 5 c-68 4
-128 1 -201 -12 -87 -15 -137 -16 -309 -10 -113 3 -232 12 -265 20 -103 23
-316 28 -430 11 -186 -29 -525 -17 -600 21 -77 40 -120 121 -96 181 6 15 20
63 31 107 13 49 53 144 105 247 47 92 85 176 85 187 0 72 -65 113 -173 110
-77 -2 -123 17 -192 77 -16 14 -47 35 -67 45 -39 20 -47 42 -29 77 5 9 27 55
48 102 66 142 151 211 304 244 79 17 115 19 139 6z m-527 -295 c-1 -16 -5 -36
-9 -44 -4 -9 -8 -20 -8 -26 -1 -5 -8 -9 -16 -8 -32 5 -134 49 -137 59 -5 14
42 36 97 44 67 11 75 8 73 -25z"/>
<path d="M5860 5955 c-13 -16 -10 -47 6 -52 19 -6 58 32 51 50 -8 21 -40 22
-57 2z"/>
<path d="M6807 5273 c-22 -21 20 -105 70 -141 61 -42 154 -81 283 -118 121
-34 147 -38 250 -38 63 0 134 6 156 12 57 17 114 76 114 119 0 28 -4 33 -23
33 -13 0 -42 -16 -66 -36 -71 -62 -144 -68 -339 -28 -147 29 -279 87 -364 160
-51 43 -68 51 -81 37z"/>
<path d="M2874 5282 c18 -35 93 -105 136 -127 44 -23 212 -83 295 -106 82 -22
245 -26 327 -7 29 6 57 11 62 10 16 -5 249 79 278 99 31 22 36 50 13 69 -12
10 -23 8 -58 -9 -50 -24 -407 -101 -470 -101 -45 0 -140 15 -192 30 -16 5 -66
19 -110 31 -78 21 -192 74 -253 118 -40 28 -45 27 -28 -7z"/>
</g>
</svg>
